<svg width="128" height="128" viewBox="0 0 128 128" fill="none" xmlns="http://www.w3.org/2000/svg">
<rect width="128" height="128" rx="64" fill="white"/>
<g clip-path="url(#clip0_102_95)">
<path d="M98.0536 78.6353V56.0527H90.123V48H114.928V56.0527H106.997V78.6353H98.0536Z" fill="#651985"/>
<path d="M68.8303 78.6355L62.0012 66.8628L69.5353 55.8779H78.7875L71.3857 66.3814L79.1841 78.6355H68.8303ZM54.291 78.6355V55.8779H63.1027V63.7118H70.1521V70.5391H63.1027V78.6355H54.291Z" fill="#651985"/>
<path d="M13 78.6353V48H21.5473L32.6941 66.6438L29.1254 66.6875L39.6113 48H48.1587V78.6353H39.5673L39.7435 59.1162L41.2856 59.6852L33.4431 73.4273H27.7155L19.4325 59.6852L20.9746 59.1162L21.1508 78.6353H13Z" fill="#651985"/>
<path d="M82.7666 78.6352V69.5176H91.9455V78.6352H82.7666Z" fill="#651985"/>
</g>
<defs>
<clipPath id="clip0_102_95">
<rect width="102" height="31" fill="white" transform="translate(13 48)"/>
</clipPath>
</defs>
</svg>
