<svg width="195" height="109" viewBox="0 0 195 109" fill="none" xmlns="http://www.w3.org/2000/svg">
<path d="M162.953 57.9998V15.2457H148.039V0H194.687V15.2457H179.773V57.9998H162.953Z" fill="#651985"/>
<path d="M107.994 57.9998L95.1513 35.7114L109.32 14.9143H126.72L112.8 34.7999L127.465 57.9998H107.994ZM80.6514 57.9998V14.9143H97.2227V29.7457H110.48V42.6713H97.2227V57.9998H80.6514Z" fill="#651985"/>
<path d="M3 57.9998V0H19.0742L40.037 35.297L33.3256 35.3799L53.0455 0H69.1197V57.9998H52.9626L53.2941 21.0456L56.1941 22.1228L41.4456 48.1398H30.6742L15.0971 22.1228L17.9971 21.0456L18.3285 57.9998H3Z" fill="#651985"/>
<path d="M134.204 57.9999V40.738H151.465V57.9999H134.204Z" fill="#651985"/>
<path d="M3.54358 100V74.8H7.44958L17.7276 91.522L16.1616 91.54L26.0616 74.8H29.8956V100H25.9536L26.0076 80.164L26.7816 80.434L18.2136 94.564H15.2616L6.53158 80.434L7.17958 80.164L7.23358 100H3.54358ZM41.1478 100.54C40.2598 100.54 39.3778 100.456 38.5018 100.288C37.6258 100.132 36.8038 99.886 36.0358 99.55C35.2798 99.202 34.6198 98.758 34.0558 98.218L35.7838 95.5C36.4438 96.112 37.2238 96.574 38.1238 96.886C39.0358 97.198 39.9538 97.354 40.8778 97.354C42.1498 97.354 43.2418 97.126 44.1538 96.67C45.0658 96.202 45.7618 95.494 46.2418 94.546C46.7218 93.598 46.9618 92.398 46.9618 90.946C46.9618 88.906 46.4398 87.376 45.3958 86.356C44.3638 85.336 42.8998 84.826 41.0038 84.826C40.0558 84.826 39.1558 84.994 38.3038 85.33C37.4518 85.654 36.7198 86.08 36.1078 86.608L34.5778 83.872C35.3938 83.188 36.4198 82.648 37.6558 82.252C38.9038 81.844 40.1638 81.64 41.4358 81.64C43.2958 81.64 44.9158 82.03 46.2958 82.81C47.6758 83.578 48.7498 84.658 49.5178 86.05C50.2858 87.442 50.6698 89.068 50.6698 90.928C50.6698 92.38 50.4418 93.7 49.9858 94.888C49.5418 96.064 48.8998 97.072 48.0598 97.912C47.2318 98.752 46.2298 99.4 45.0538 99.856C43.8898 100.312 42.5878 100.54 41.1478 100.54ZM37.6018 92.368V89.398H48.1318V92.368H37.6018ZM54.631 100V82.18H58.465V94.204L68.131 82.18H71.587V100H67.771V87.832L58.015 100H54.631ZM63.109 79.12C61.777 79.12 60.607 78.844 59.599 78.292C58.591 77.74 57.811 76.978 57.259 76.006C56.707 75.034 56.449 73.918 56.485 72.658H59.797C59.749 73.762 60.025 74.656 60.625 75.34C61.237 76.012 62.065 76.348 63.109 76.348C64.153 76.348 64.975 76.012 65.575 75.34C66.175 74.656 66.445 73.762 66.385 72.658H69.715C69.739 73.906 69.469 75.016 68.905 75.988C68.353 76.96 67.573 77.728 66.565 78.292C65.569 78.844 64.417 79.12 63.109 79.12ZM88.9398 100L83.0358 90.532L88.5258 82.18H92.7558L87.3018 90.352L93.6738 100H88.9398ZM77.0958 100V82.18H81.0558V89.056H86.4198V92.332H81.0558V100H77.0958ZM104.954 100.54C103.034 100.54 101.348 100.15 99.8965 99.37C98.4445 98.578 97.3105 97.474 96.4945 96.058C95.6905 94.642 95.2885 92.998 95.2885 91.126C95.2885 89.758 95.5225 88.498 95.9905 87.346C96.4585 86.182 97.1185 85.174 97.9705 84.322C98.8225 83.47 99.8185 82.81 100.958 82.342C102.11 81.874 103.364 81.64 104.72 81.64C106.196 81.64 107.51 81.904 108.662 82.432C109.814 82.948 110.768 83.674 111.524 84.61C112.292 85.546 112.832 86.644 113.144 87.904C113.468 89.152 113.522 90.508 113.306 91.972H99.0865C99.0625 93.04 99.2965 93.976 99.7885 94.78C100.28 95.572 100.982 96.19 101.894 96.634C102.818 97.078 103.904 97.3 105.152 97.3C106.16 97.3 107.132 97.15 108.068 96.85C109.016 96.538 109.874 96.082 110.642 95.482L112.172 98.326C111.596 98.794 110.9 99.196 110.084 99.532C109.268 99.856 108.416 100.102 107.528 100.27C106.64 100.45 105.782 100.54 104.954 100.54ZM99.3205 89.056H109.418C109.382 87.712 108.95 86.656 108.122 85.888C107.306 85.12 106.142 84.736 104.63 84.736C103.166 84.736 101.948 85.12 100.976 85.888C100.016 86.656 99.4645 87.712 99.3205 89.056ZM117.42 107.56V82.18H120.984V84.682C121.692 83.782 122.598 83.05 123.702 82.486C124.806 81.922 126.168 81.64 127.788 81.64C129.528 81.64 131.07 82.054 132.414 82.882C133.77 83.698 134.826 84.82 135.582 86.248C136.338 87.664 136.716 89.278 136.716 91.09C136.716 92.398 136.5 93.628 136.068 94.78C135.636 95.92 135.018 96.922 134.214 97.786C133.422 98.65 132.474 99.328 131.37 99.82C130.278 100.3 129.066 100.54 127.734 100.54C126.342 100.54 125.118 100.288 124.062 99.784C123.006 99.28 122.106 98.602 121.362 97.75V107.56H117.42ZM127.068 97.03C128.172 97.03 129.15 96.79 130.002 96.31C130.866 95.818 131.538 95.128 132.018 94.24C132.51 93.352 132.756 92.302 132.756 91.09C132.756 89.878 132.51 88.828 132.018 87.94C131.526 87.04 130.848 86.35 129.984 85.87C129.132 85.39 128.16 85.15 127.068 85.15C125.964 85.15 124.98 85.39 124.116 85.87C123.264 86.35 122.592 87.04 122.1 87.94C121.608 88.828 121.362 89.878 121.362 91.09C121.362 92.302 121.608 93.352 122.1 94.24C122.592 95.128 123.264 95.818 124.116 96.31C124.98 96.79 125.964 97.03 127.068 97.03ZM144 100V78.49H136.908V74.8H155.124V78.49H148.032V100H144ZM164.966 100.54C163.046 100.54 161.36 100.15 159.908 99.37C158.456 98.578 157.322 97.474 156.506 96.058C155.702 94.642 155.3 92.998 155.3 91.126C155.3 89.758 155.534 88.498 156.002 87.346C156.47 86.182 157.13 85.174 157.982 84.322C158.834 83.47 159.83 82.81 160.97 82.342C162.122 81.874 163.376 81.64 164.732 81.64C166.208 81.64 167.522 81.904 168.674 82.432C169.826 82.948 170.78 83.674 171.536 84.61C172.304 85.546 172.844 86.644 173.156 87.904C173.48 89.152 173.534 90.508 173.318 91.972H159.098C159.074 93.04 159.308 93.976 159.8 94.78C160.292 95.572 160.994 96.19 161.906 96.634C162.83 97.078 163.916 97.3 165.164 97.3C166.172 97.3 167.144 97.15 168.08 96.85C169.028 96.538 169.886 96.082 170.654 95.482L172.184 98.326C171.608 98.794 170.912 99.196 170.096 99.532C169.28 99.856 168.428 100.102 167.54 100.27C166.652 100.45 165.794 100.54 164.966 100.54ZM159.332 89.056H169.43C169.394 87.712 168.962 86.656 168.134 85.888C167.318 85.12 166.154 84.736 164.642 84.736C163.178 84.736 161.96 85.12 160.988 85.888C160.028 86.656 159.476 87.712 159.332 89.056ZM174.972 100.018L181.416 91.054L175.35 82.18H180.336L184.134 88.21L187.806 82.18H192.666L186.78 90.946L193.17 100H188.094L183.99 93.736L179.832 99.964L174.972 100.018Z" fill="#651985"/>
</svg>
