<svg width="1200" height="1200" viewBox="0 0 1200 1200" fill="none" xmlns="http://www.w3.org/2000/svg">
<path d="M946.788 323.823L944.554 326.819C944.315 327.185 943.957 327.392 943.521 327.416L926.706 328.327C926.392 328.344 926.132 328.449 925.928 328.622C925.928 328.608 925.929 328.596 925.931 328.585L933.287 325.036L933.296 325.053C933.476 324.938 933.691 324.869 933.941 324.856L946.788 323.823Z" fill="url(#paint0_linear_88_4953)"/>
<path d="M957.84 383.512C958.02 383.413 958.178 383.265 958.309 383.065L967.505 368.958C967.744 368.592 968.102 368.385 968.538 368.362L972.306 368.03L967.192 376.944C966.979 377.252 966.872 377.399 966.591 377.622L957.843 383.517L957.84 383.512Z" fill="url(#paint1_linear_88_4953)"/>
<path d="M958.309 315.344C957.324 312.695 954.736 311.201 953.751 312.712L944.554 326.819C944.316 327.185 943.957 327.392 943.521 327.415L926.706 328.326C924.904 328.424 924.904 331.412 926.706 333.591L943.521 353.918C943.957 354.445 944.316 355.066 944.554 355.707L953.751 380.433C954.736 383.082 957.324 384.576 958.309 383.065L967.506 368.958C967.744 368.592 968.103 368.385 968.539 368.362L985.354 367.451C987.156 367.353 987.156 364.365 985.354 362.187L968.539 341.859C968.103 341.332 967.744 340.711 967.506 340.07L958.309 315.344Z" fill="url(#paint2_linear_88_4953)"/>
<path d="M961.93 308.592C963.068 307.709 965.283 309.162 966.178 311.567L974.81 336.062C975.048 336.703 975.407 337.323 975.842 337.85L992.124 357.617C993.804 359.648 993.918 362.382 992.466 362.823L986.138 367.151C987.099 366.326 986.838 363.981 985.353 362.187L968.538 341.859C968.102 341.332 967.744 340.712 967.506 340.07L958.309 315.345C957.492 313.147 955.572 311.744 954.378 312.192L961.93 308.592Z" fill="url(#paint3_linear_88_4953)"/>
<path d="M922.526 268.015L921.259 269.715C921.124 269.922 920.92 270.039 920.673 270.053L911.133 270.57C910.955 270.579 910.807 270.639 910.691 270.737C910.691 270.729 910.692 270.722 910.693 270.716L914.867 268.702L914.872 268.712C914.974 268.647 915.096 268.608 915.238 268.6L922.526 268.015Z" fill="url(#paint4_linear_88_4953)"/>
<path d="M928.797 301.879C928.899 301.823 928.989 301.739 929.063 301.625L934.28 293.622C934.416 293.414 934.619 293.297 934.866 293.284L937.004 293.095L934.103 298.152C933.982 298.327 933.921 298.411 933.762 298.538L928.799 301.882L928.797 301.879Z" fill="url(#paint5_linear_88_4953)"/>
<path d="M929.064 263.204C928.504 261.701 927.036 260.853 926.477 261.711L921.26 269.714C921.124 269.922 920.921 270.039 920.674 270.053L911.134 270.569C910.111 270.625 910.111 272.32 911.134 273.556L920.674 285.089C920.921 285.388 921.124 285.74 921.26 286.104L926.477 300.132C927.036 301.635 928.504 302.483 929.064 301.625L934.281 293.622C934.416 293.414 934.62 293.297 934.867 293.283L944.407 292.767C945.429 292.711 945.429 291.016 944.407 289.78L934.867 278.247C934.62 277.948 934.416 277.596 934.281 277.232L929.064 263.204Z" fill="url(#paint6_linear_88_4953)"/>
<path d="M931.117 259.374C931.763 258.872 933.02 259.696 933.527 261.061L938.425 274.958C938.56 275.322 938.763 275.674 939.011 275.973L948.248 287.188C949.201 288.34 949.266 289.891 948.442 290.141L944.851 292.596C945.397 292.129 945.249 290.798 944.407 289.78L934.867 278.247C934.619 277.948 934.416 277.596 934.281 277.233L929.063 263.204C928.599 261.957 927.51 261.161 926.833 261.416L931.117 259.374Z" fill="url(#paint7_linear_88_4953)"/>
<path d="M887.885 343.922L886.617 345.622C886.482 345.83 886.279 345.947 886.031 345.96L876.491 346.477C876.313 346.487 876.166 346.546 876.05 346.645C876.05 346.637 876.05 346.63 876.052 346.624L880.225 344.61L880.23 344.62C880.332 344.555 880.454 344.516 880.596 344.508L887.885 343.922Z" fill="url(#paint8_linear_88_4953)"/>
<path d="M894.155 377.786C894.257 377.73 894.347 377.646 894.421 377.533L899.639 369.529C899.774 369.322 899.977 369.204 900.225 369.191L902.362 369.003L899.461 374.06C899.34 374.235 899.279 374.318 899.12 374.445L894.157 377.789L894.155 377.786Z" fill="url(#paint9_linear_88_4953)"/>
<path d="M894.422 339.112C893.863 337.608 892.395 336.761 891.835 337.618L886.618 345.622C886.483 345.829 886.279 345.947 886.032 345.96L876.492 346.477C875.47 346.532 875.47 348.228 876.492 349.464L886.032 360.996C886.279 361.295 886.483 361.647 886.618 362.011L891.835 376.039C892.395 377.543 893.863 378.39 894.422 377.533L899.64 369.529C899.775 369.322 899.978 369.204 900.226 369.191L909.766 368.674C910.788 368.619 910.788 366.923 909.766 365.687L900.226 354.155C899.978 353.856 899.775 353.504 899.64 353.14L894.422 339.112Z" fill="url(#paint10_linear_88_4953)"/>
<path d="M896.476 335.281C897.121 334.78 898.378 335.604 898.886 336.969L903.783 350.866C903.918 351.229 904.122 351.581 904.369 351.88L913.606 363.095C914.559 364.247 914.624 365.798 913.8 366.049L910.21 368.504C910.756 368.036 910.607 366.706 909.765 365.688L900.225 354.155C899.978 353.856 899.774 353.504 899.639 353.14L894.421 339.112C893.958 337.865 892.868 337.069 892.191 337.323L896.476 335.281Z" fill="url(#paint11_linear_88_4953)"/>
<defs>
<linearGradient id="paint0_linear_88_4953" x1="946.788" y1="323.823" x2="942.59" y2="341.88" gradientUnits="userSpaceOnUse">
<stop stop-color="#460C5F"/>
<stop offset="1" stop-color="#9219C5"/>
</linearGradient>
<linearGradient id="paint1_linear_88_4953" x1="972.306" y1="360.227" x2="966.044" y2="399.255" gradientUnits="userSpaceOnUse">
<stop stop-color="#460C5F"/>
<stop offset="1" stop-color="#9219C5"/>
</linearGradient>
<linearGradient id="paint2_linear_88_4953" x1="953.741" y1="351.291" x2="941.293" y2="271.328" gradientUnits="userSpaceOnUse">
<stop stop-color="#9219C5"/>
<stop offset="1" stop-color="#460C5F"/>
</linearGradient>
<linearGradient id="paint3_linear_88_4953" x1="964.745" y1="315.465" x2="994.302" y2="344.198" gradientUnits="userSpaceOnUse">
<stop offset="0.260478" stop-color="#D17DF5"/>
<stop offset="0.525739" stop-color="#DEA2F8"/>
<stop offset="1" stop-color="#E3AFF9"/>
</linearGradient>
<linearGradient id="paint4_linear_88_4953" x1="922.526" y1="268.015" x2="920.145" y2="278.259" gradientUnits="userSpaceOnUse">
<stop stop-color="#460C5F"/>
<stop offset="1" stop-color="#9219C5"/>
</linearGradient>
<linearGradient id="paint5_linear_88_4953" x1="937.004" y1="288.668" x2="933.451" y2="310.811" gradientUnits="userSpaceOnUse">
<stop stop-color="#460C5F"/>
<stop offset="1" stop-color="#9219C5"/>
</linearGradient>
<linearGradient id="paint6_linear_88_4953" x1="926.472" y1="283.598" x2="919.409" y2="238.231" gradientUnits="userSpaceOnUse">
<stop stop-color="#9219C5"/>
<stop offset="1" stop-color="#460C5F"/>
</linearGradient>
<linearGradient id="paint7_linear_88_4953" x1="932.714" y1="263.272" x2="949.484" y2="279.574" gradientUnits="userSpaceOnUse">
<stop offset="0.260478" stop-color="#D17DF5"/>
<stop offset="0.525739" stop-color="#DEA2F8"/>
<stop offset="1" stop-color="#E3AFF9"/>
</linearGradient>
<linearGradient id="paint8_linear_88_4953" x1="887.885" y1="343.922" x2="885.503" y2="354.167" gradientUnits="userSpaceOnUse">
<stop stop-color="#460C5F"/>
<stop offset="1" stop-color="#9219C5"/>
</linearGradient>
<linearGradient id="paint9_linear_88_4953" x1="902.362" y1="364.576" x2="898.81" y2="386.718" gradientUnits="userSpaceOnUse">
<stop stop-color="#460C5F"/>
<stop offset="1" stop-color="#9219C5"/>
</linearGradient>
<linearGradient id="paint10_linear_88_4953" x1="891.83" y1="359.506" x2="884.768" y2="314.139" gradientUnits="userSpaceOnUse">
<stop stop-color="#9219C5"/>
<stop offset="1" stop-color="#460C5F"/>
</linearGradient>
<linearGradient id="paint11_linear_88_4953" x1="898.073" y1="339.18" x2="914.842" y2="355.482" gradientUnits="userSpaceOnUse">
<stop offset="0.260478" stop-color="#D17DF5"/>
<stop offset="0.525739" stop-color="#DEA2F8"/>
<stop offset="1" stop-color="#E3AFF9"/>
</linearGradient>
</defs>
</svg>
