<svg width="1200" height="1200" viewBox="0 0 1200 1200" fill="none" xmlns="http://www.w3.org/2000/svg">
<path d="M224.787 351.088L227.021 354.084C227.26 354.45 227.618 354.657 228.054 354.681L244.869 355.592C245.183 355.609 245.443 355.714 245.648 355.887C245.647 355.873 245.646 355.861 245.644 355.85L238.288 352.301L238.279 352.318C238.099 352.203 237.884 352.134 237.634 352.121L224.787 351.088Z" fill="url(#paint0_linear_88_4953)"/>
<path d="M213.735 410.777C213.556 410.678 213.397 410.53 213.266 410.33L204.07 396.223C203.831 395.857 203.473 395.65 203.037 395.627L199.27 395.295L204.383 404.209C204.597 404.517 204.704 404.664 204.984 404.887L213.732 410.782L213.735 410.777Z" fill="url(#paint1_linear_88_4953)"/>
<path d="M213.266 342.61C214.251 339.96 216.839 338.466 217.825 339.977L227.021 354.084C227.26 354.45 227.618 354.657 228.054 354.68L244.869 355.591C246.671 355.689 246.671 358.677 244.869 360.856L228.054 381.183C227.618 381.71 227.26 382.331 227.021 382.972L217.825 407.698C216.839 410.347 214.251 411.841 213.266 410.33L204.069 396.223C203.831 395.857 203.473 395.65 203.037 395.627L186.222 394.716C184.42 394.618 184.42 391.63 186.222 389.452L203.037 369.124C203.473 368.597 203.831 367.976 204.069 367.335L213.266 342.61Z" fill="url(#paint2_linear_88_4953)"/>
<path d="M209.645 335.858C208.507 334.974 206.292 336.427 205.397 338.832L196.766 363.327C196.527 363.968 196.169 364.588 195.733 365.115L179.451 384.882C177.771 386.913 177.657 389.647 179.109 390.088L185.438 394.416C184.476 393.591 184.737 391.246 186.222 389.452L203.037 369.124C203.473 368.597 203.831 367.977 204.07 367.335L213.266 342.61C214.084 340.412 216.004 339.009 217.197 339.457L209.645 335.858Z" fill="url(#paint3_linear_88_4953)"/>
<path d="M263.561 287.877L264.917 289.696C265.062 289.918 265.279 290.043 265.544 290.058L275.752 290.611C275.943 290.621 276.101 290.685 276.225 290.79C276.225 290.782 276.224 290.774 276.223 290.767L271.757 288.613L271.752 288.623C271.642 288.554 271.512 288.512 271.36 288.503L263.561 287.877Z" fill="url(#paint4_linear_88_4953)"/>
<path d="M256.851 324.114C256.742 324.054 256.646 323.964 256.567 323.842L250.984 315.278C250.839 315.056 250.621 314.93 250.357 314.916L248.069 314.715L251.174 320.126C251.303 320.313 251.368 320.403 251.538 320.538L256.85 324.117L256.851 324.114Z" fill="url(#paint5_linear_88_4953)"/>
<path d="M256.566 282.729C257.165 281.121 258.736 280.214 259.334 281.131L264.917 289.696C265.062 289.918 265.279 290.043 265.544 290.058L275.753 290.611C276.847 290.67 276.847 292.484 275.753 293.806L265.544 306.147C265.279 306.467 265.062 306.844 264.917 307.233L259.334 322.244C258.736 323.853 257.165 324.76 256.566 323.842L250.983 315.278C250.838 315.056 250.621 314.93 250.356 314.916L240.148 314.363C239.054 314.304 239.054 312.49 240.148 311.167L250.356 298.826C250.621 298.506 250.838 298.13 250.983 297.74L256.566 282.729Z" fill="url(#paint6_linear_88_4953)"/>
<path d="M254.368 278.63C253.677 278.093 252.332 278.976 251.789 280.436L246.549 295.307C246.404 295.696 246.187 296.073 245.922 296.393L236.037 308.393C235.018 309.626 234.948 311.286 235.83 311.553L239.672 314.181C239.088 313.68 239.246 312.257 240.148 311.167L250.356 298.826C250.621 298.506 250.839 298.13 250.983 297.74L256.566 282.729C257.063 281.395 258.228 280.543 258.953 280.815L254.368 278.63Z" fill="url(#paint7_linear_88_4953)"/>
<path d="M288.902 351.306L290.259 353.125C290.403 353.347 290.621 353.473 290.886 353.487L301.094 354.04C301.285 354.05 301.443 354.114 301.567 354.219C301.567 354.211 301.566 354.204 301.565 354.197L297.099 352.042L297.094 352.053C296.984 351.983 296.853 351.941 296.702 351.933L288.902 351.306Z" fill="url(#paint8_linear_88_4953)"/>
<path d="M282.193 387.543C282.084 387.483 281.988 387.393 281.909 387.272L276.325 378.708C276.181 378.485 275.963 378.36 275.698 378.346L273.411 378.144L276.516 383.556C276.645 383.743 276.71 383.832 276.88 383.968L282.191 387.546L282.193 387.543Z" fill="url(#paint9_linear_88_4953)"/>
<path d="M281.908 346.159C282.506 344.55 284.077 343.643 284.676 344.561L290.259 353.125C290.404 353.347 290.621 353.473 290.886 353.487L301.094 354.04C302.188 354.099 302.188 355.913 301.094 357.236L290.886 369.577C290.621 369.897 290.404 370.273 290.259 370.663L284.676 385.674C284.077 387.282 282.506 388.189 281.908 387.272L276.325 378.707C276.18 378.485 275.963 378.36 275.698 378.345L265.489 377.792C264.395 377.733 264.395 375.919 265.489 374.597L275.698 362.256C275.963 361.936 276.18 361.559 276.325 361.17L281.908 346.159Z" fill="url(#paint10_linear_88_4953)"/>
<path d="M279.71 342.059C279.019 341.523 277.674 342.405 277.131 343.865L271.891 358.736C271.746 359.125 271.528 359.502 271.264 359.822L261.379 371.823C260.359 373.055 260.29 374.715 261.171 374.983L265.014 377.61C264.43 377.11 264.588 375.686 265.49 374.597L275.698 362.256C275.963 361.936 276.18 361.559 276.325 361.17L281.908 346.159C282.405 344.824 283.57 343.973 284.295 344.245L279.71 342.059Z" fill="url(#paint11_linear_88_4953)"/>
<defs>
<linearGradient id="paint0_linear_88_4953" x1="283.1" y1="339.052" x2="227.881" y2="326.326" gradientUnits="userSpaceOnUse">
<stop stop-color="#FCD34D"/>
<stop offset="1" stop-color="#D97706"/>
</linearGradient>
<linearGradient id="paint1_linear_88_4953" x1="212.457" y1="424.269" x2="195.873" y2="388.683" gradientUnits="userSpaceOnUse">
<stop stop-color="#FCD34D"/>
<stop offset="1" stop-color="#D97706"/>
</linearGradient>
<linearGradient id="paint2_linear_88_4953" x1="213.619" y1="342.044" x2="259.561" y2="410.099" gradientUnits="userSpaceOnUse">
<stop stop-color="#F59E0B"/>
<stop offset="1" stop-color="#FCD34D"/>
</linearGradient>
<linearGradient id="paint3_linear_88_4953" x1="188.971" y1="374.547" x2="195.677" y2="298.178" gradientUnits="userSpaceOnUse">
<stop stop-color="#FCD34D"/>
<stop offset="1" stop-color="#F59E0B"/>
</linearGradient>
<linearGradient id="paint4_linear_88_4953" x1="298.962" y1="280.569" x2="265.439" y2="272.843" gradientUnits="userSpaceOnUse">
<stop stop-color="#FCD34D"/>
<stop offset="1" stop-color="#D97706"/>
</linearGradient>
<linearGradient id="paint5_linear_88_4953" x1="256.076" y1="332.305" x2="246.007" y2="310.701" gradientUnits="userSpaceOnUse">
<stop stop-color="#FCD34D"/>
<stop offset="1" stop-color="#D97706"/>
</linearGradient>
<linearGradient id="paint6_linear_88_4953" x1="256.78" y1="282.386" x2="284.672" y2="323.703" gradientUnits="userSpaceOnUse">
<stop stop-color="#F59E0B"/>
<stop offset="1" stop-color="#FCD34D"/>
</linearGradient>
<linearGradient id="paint7_linear_88_4953" x1="241.817" y1="302.118" x2="245.888" y2="255.754" gradientUnits="userSpaceOnUse">
<stop stop-color="#FCD34D"/>
<stop offset="1" stop-color="#F59E0B"/>
</linearGradient>
<linearGradient id="paint8_linear_88_4953" x1="324.304" y1="343.999" x2="290.781" y2="336.273" gradientUnits="userSpaceOnUse">
<stop stop-color="#FCD34D"/>
<stop offset="1" stop-color="#D97706"/>
</linearGradient>
<linearGradient id="paint9_linear_88_4953" x1="281.418" y1="395.734" x2="271.349" y2="374.13" gradientUnits="userSpaceOnUse">
<stop stop-color="#FCD34D"/>
<stop offset="1" stop-color="#D97706"/>
</linearGradient>
<linearGradient id="paint10_linear_88_4953" x1="282.122" y1="345.816" x2="310.014" y2="387.132" gradientUnits="userSpaceOnUse">
<stop stop-color="#F59E0B"/>
<stop offset="1" stop-color="#FCD34D"/>
</linearGradient>
<linearGradient id="paint11_linear_88_4953" x1="267.159" y1="365.548" x2="271.23" y2="319.184" gradientUnits="userSpaceOnUse">
<stop stop-color="#FCD34D"/>
<stop offset="1" stop-color="#F59E0B"/>
</linearGradient>
</defs>
</svg>
